<svg width="1200" height="630" viewBox="0 0 1200 630" fill="none" xmlns="http://www.w3.org/2000/svg">
  <rect width="1200" height="630" fill="#0A1325"/>
  <rect x="36" y="36" width="1128" height="558" rx="28" fill="url(#bg)"/>
  <circle cx="1030" cy="130" r="170" fill="#1F6FEB" fill-opacity="0.18"/>
  <circle cx="970" cy="480" r="220" fill="#6AA6FF" fill-opacity="0.08"/>
  <rect x="86" y="96" width="190" height="38" rx="19" fill="#E8F0FF"/>
  <text x="181" y="120" text-anchor="middle" fill="#0A1325" font-size="20" font-family="Arial, Helvetica, sans-serif" font-weight="700">MULTI-AGENT SYSTEM</text>
  <text x="86" y="200" fill="#F7FAFF" font-size="56" font-family="Arial, Helvetica, sans-serif" font-weight="700">Concept Stock Agent</text>
  <text x="86" y="252" fill="#D5E2FF" font-size="28" font-family="Arial, Helvetica, sans-serif">Theme investing workflow for concept decomposition,</text>
  <text x="86" y="292" fill="#D5E2FF" font-size="28" font-family="Arial, Helvetica, sans-serif">industry-chain expansion, and basket construction</text>
  <rect x="86" y="352" width="190" height="64" rx="18" fill="#11284A"/>
  <rect x="298" y="352" width="190" height="64" rx="18" fill="#11284A"/>
  <rect x="510" y="352" width="190" height="64" rx="18" fill="#11284A"/>
  <text x="181" y="392" text-anchor="middle" fill="#F7FAFF" font-size="24" font-family="Arial, Helvetica, sans-serif" font-weight="700">Planner</text>
  <text x="393" y="392" text-anchor="middle" fill="#F7FAFF" font-size="24" font-family="Arial, Helvetica, sans-serif" font-weight="700">Chain Analyzer</text>
  <text x="605" y="392" text-anchor="middle" fill="#F7FAFF" font-size="24" font-family="Arial, Helvetica, sans-serif" font-weight="700">Node Expander</text>
  <path d="M276 384H298" stroke="#99BEFF" stroke-width="6" stroke-linecap="round"/>
  <path d="M488 384H510" stroke="#99BEFF" stroke-width="6" stroke-linecap="round"/>
  <rect x="722" y="332" width="358" height="116" rx="22" fill="#0E223F" stroke="#85B2FF" stroke-opacity="0.55"/>
  <text x="752" y="378" fill="#F7FAFF" font-size="24" font-family="Arial, Helvetica, sans-serif" font-weight="700">Review + Build</text>
  <text x="752" y="414" fill="#D5E2FF" font-size="22" font-family="Arial, Helvetica, sans-serif">score evidence, merge overlap, build final basket</text>
  <rect x="86" y="486" width="314" height="54" rx="16" fill="#F4F8FF"/>
  <text x="243" y="520" text-anchor="middle" fill="#0A1325" font-size="22" font-family="Arial, Helvetica, sans-serif" font-weight="700">Python  •  Tushare  •  DeepSeek</text>
  <text x="86" y="575" fill="#D5E2FF" font-size="20" font-family="Arial, Helvetica, sans-serif">from concept input to JSON artifact and equal-weight backtest</text>
  <defs>
    <linearGradient id="bg" x1="36" y1="36" x2="1164" y2="594" gradientUnits="userSpaceOnUse">
      <stop stop-color="#0F203B"/>
      <stop offset="1" stop-color="#0B1A31"/>
    </linearGradient>
  </defs>
</svg>
